<svg width="118" height="34" viewBox="0 0 118 34" fill="none" xmlns="http://www.w3.org/2000/svg">
<path d="M12.0391 4.82529V13.8213H2.06814V4.82529H3.95314V12.3133H6.16314V4.82529H7.94414V12.3133H10.1671V4.82529H12.0391ZM20.7243 13.8213H18.8393V10.2073C18.8393 8.97662 18.9303 7.82396 19.1123 6.74929L16.2783 13.8213H13.9383V4.82529H15.8233V8.47829C15.8233 9.20629 15.7973 9.81296 15.7453 10.2983C15.7019 10.775 15.6369 11.3036 15.5503 11.8843L18.4363 4.82529H20.7243V13.8213ZM32.3199 9.27129C32.3199 10.5626 31.9472 11.542 31.2019 12.2093C30.4565 12.868 29.4209 13.219 28.0949 13.2623V14.3153H26.2359V13.2493C24.8925 13.1886 23.8525 12.8333 23.1159 12.1833C22.3792 11.5246 22.0109 10.567 22.0109 9.31029C22.0109 8.01896 22.3835 7.04396 23.1289 6.38529C23.8742 5.71796 24.9099 5.36262 26.2359 5.31929V4.34429H28.0949V5.33229C29.4382 5.39296 30.4782 5.75262 31.2149 6.41129C31.9515 7.06129 32.3199 8.01462 32.3199 9.27129ZM28.0169 12.0403C28.8402 11.9883 29.4382 11.7413 29.8109 11.2993C30.1835 10.8573 30.3699 10.1813 30.3699 9.27129C30.3699 8.37862 30.1792 7.71129 29.7979 7.26929C29.4165 6.82729 28.8229 6.58462 28.0169 6.54129V12.0403ZM23.9609 9.31029C23.9609 10.203 24.1515 10.8703 24.5329 11.3123C24.9142 11.7543 25.5079 11.997 26.3139 12.0403V6.54129C25.4905 6.59329 24.8925 6.84029 24.5199 7.28229C24.1472 7.72429 23.9609 8.40029 23.9609 9.31029ZM39.1133 4.82529L38.9053 6.32029H36.6303V13.8213H34.7193V6.32029H32.3273V4.82529H39.1133Z" fill="#712D9C"/>
<path d="M5.61714 19.9381C6.18047 19.9381 6.67014 20.0204 7.08614 20.1851C7.50214 20.3411 7.90947 20.5838 8.30814 20.9131L7.35914 22.0181C6.83914 21.5934 6.29314 21.3811 5.72114 21.3811C5.07981 21.3811 4.56847 21.6454 4.18714 22.1741C3.81447 22.6941 3.62814 23.5131 3.62814 24.6311C3.62814 25.7231 3.81447 26.5334 4.18714 27.0621C4.56847 27.5821 5.08414 27.8421 5.73414 27.8421C6.07214 27.8421 6.37981 27.7814 6.65714 27.6601C6.93447 27.5301 7.22481 27.3481 7.52814 27.1141L8.41214 28.2191C8.09147 28.5484 7.69281 28.8214 7.21614 29.0381C6.74814 29.2461 6.22814 29.3501 5.65614 29.3501C4.85014 29.3501 4.14381 29.1681 3.53714 28.8041C2.93047 28.4401 2.45814 27.9071 2.12014 27.2051C1.78214 26.4944 1.61314 25.6364 1.61314 24.6311C1.61314 23.6518 1.78647 22.8111 2.13314 22.1091C2.47981 21.3984 2.95647 20.8611 3.56314 20.4971C4.16981 20.1244 4.85447 19.9381 5.61714 19.9381ZM11.4059 20.1461V29.1421H9.4949V20.1461H11.4059ZM20.1022 29.1421H17.6452L14.7852 22.0051C14.8632 22.6204 14.9239 23.2011 14.9672 23.7471C15.0192 24.2844 15.0452 24.9171 15.0452 25.6451V29.1421H13.3162V20.1461H15.7212L18.6332 27.2961C18.4599 26.1348 18.3732 25.0688 18.3732 24.0981V20.1461H20.1022V29.1421ZM27.3688 20.1461L27.1608 21.5371H23.9108V23.8771H26.7448V25.2551H23.9108V27.7381H27.3948V29.1421H21.9998V20.1461H27.3688ZM37.5909 29.1421H35.7189L35.5239 25.4891C35.4633 24.3971 35.4329 23.4698 35.4329 22.7071C35.4329 22.2998 35.4373 22.0051 35.4459 21.8231L33.9249 28.1801H32.1179L30.4929 21.8101C30.5276 22.3388 30.5449 22.9324 30.5449 23.5911C30.5449 24.2931 30.5276 24.9388 30.4929 25.5281L30.2979 29.1421H28.4389L29.1409 20.1461H31.5719L33.0539 26.3471L34.4449 20.1461H36.9019L37.5909 29.1421ZM43.8203 29.1421L43.3133 27.1271H40.4923L39.9853 29.1421H37.9963L40.7653 20.1461H43.0923L45.8483 29.1421H43.8203ZM40.8563 25.7101H42.9493L41.8963 21.5631L40.8563 25.7101Z" fill="#712D9C"/>
<path d="M60.5638 17.9103H57.9442C56.8284 17.9103 55.9229 18.8158 55.9229 19.9316C55.9229 21.0473 56.8284 21.9529 57.9442 21.9529H61.1256C61.7946 21.9529 62.3777 22.3938 62.6178 23.0183C63.2487 24.6594 64.15 26.167 65.2666 27.4858C65.8582 28.1838 65.3704 29.2538 64.4554 29.2538H61.7455C60.778 29.2538 59.9439 29.9976 59.8981 30.9651C59.8496 31.9973 60.6729 32.8503 61.6943 32.8503H74.989C75.6951 32.9487 76.4147 32.9999 77.1477 32.9999C85.8096 32.9999 92.8208 25.9213 92.7089 17.2312C92.5998 8.82935 85.7409 1.9772 77.3391 1.87479C76.1613 1.85996 75.0132 1.9772 73.9083 2.21167C71.2671 2.77224 68.5707 3.03096 65.8716 3.03096H52.9866C51.8978 3.03096 50.96 3.86777 50.9088 4.95657C50.8535 6.11814 51.7793 7.07757 52.9287 7.07757H61.2092C62.9192 7.07757 64.035 8.88191 63.2615 10.406C63.2521 10.4235 63.244 10.441 63.2346 10.4585C62.8465 11.2333 62.0514 11.7211 61.1836 11.7211H50.588C49.4992 11.7211 48.5614 12.558 48.5102 13.6467C48.4549 14.8083 49.3807 15.7678 50.5301 15.7678H60.5624C61.1701 15.7678 61.6553 16.2717 61.6323 16.8795C61.6108 17.4548 61.1378 17.909 60.5624 17.909L60.5638 17.9103ZM72.7831 8.10573C72.9232 5.92948 74.6912 4.16423 76.8674 4.02813C79.5072 3.86373 81.6808 6.03863 81.5137 8.67843C81.3763 10.856 79.6096 12.6226 77.4307 12.7601C74.7869 12.9272 72.6106 10.7469 72.7817 8.10439L72.7831 8.10573ZM64.0309 15.0751C63.8679 12.4353 66.0428 10.2631 68.6826 10.4302C70.8615 10.5677 72.6281 12.3356 72.7642 14.5146C72.93 17.1584 70.7483 19.3333 68.1058 19.1622C65.9296 19.0207 64.1657 17.2527 64.0296 15.0765L64.0309 15.0751ZM75.8797 25.125C75.7423 27.3025 73.9757 29.0692 71.7981 29.2066C69.1542 29.3737 66.9753 27.1934 67.1464 24.5509C67.2879 22.3733 69.0558 20.6094 71.2334 20.4733C73.8732 20.3089 76.0455 22.4852 75.8797 25.125ZM77.3997 18.8697C76.4066 19.0355 75.5576 18.1906 75.718 17.1975C75.815 16.5965 76.2974 16.11 76.8984 16.009C77.8916 15.8432 78.7432 16.6868 78.5828 17.6812C78.4858 18.2836 78.0021 18.77 77.3997 18.8711V18.8697ZM87.1531 25.1223C87.017 27.2999 85.2517 29.0678 83.0741 29.2066C80.4303 29.3764 78.2513 27.1961 78.4211 24.5536C78.5599 22.3774 80.3252 20.6108 82.5014 20.4733C85.1399 20.3062 87.3175 22.4825 87.1531 25.1223ZM85.9012 19.1716C83.4838 19.1716 81.5245 17.2123 81.5245 14.7975C81.5245 12.3828 83.6549 10.255 86.2139 10.4329C88.3726 10.5825 90.1203 12.3329 90.2672 14.4916C90.441 17.0479 88.4184 19.1729 85.9026 19.1729L85.9012 19.1716Z" fill="#712D9C"/>
<rect x="52.7734" y="29.3203" width="5.42906" height="3.61937" rx="1.80969" fill="#712D9C"/>
<rect x="42.0664" y="3.08008" width="6.78633" height="3.92099" rx="1.96049" fill="#712D9C"/>
</svg>
