<svg width="20" height="19" viewBox="0 0 20 19" fill="none" xmlns="http://www.w3.org/2000/svg">
<path d="M9.43853 0.347516C9.6682 -0.115839 10.3318 -0.115838 10.5615 0.347517L13.1666 5.60322C13.2578 5.78722 13.4341 5.91476 13.638 5.94426L19.4632 6.78705C19.9768 6.86136 20.1819 7.48975 19.8102 7.85042L15.5951 11.9414C15.4475 12.0846 15.3802 12.291 15.415 12.4932L16.4101 18.2698C16.4978 18.7791 15.9609 19.1675 15.5016 18.927L10.2914 16.1997C10.109 16.1042 9.89104 16.1042 9.70864 16.1997L4.49841 18.927C4.03907 19.1675 3.50221 18.7791 3.58993 18.2698L4.585 12.4932C4.61983 12.291 4.5525 12.0846 4.40493 11.9414L0.189768 7.85042C-0.181851 7.48975 0.0232136 6.86136 0.536777 6.78705L6.36198 5.94426C6.56592 5.91476 6.74221 5.78722 6.83342 5.60322L9.43853 0.347516Z" fill="#FDD442"/>
</svg>
